<svg xmlns="http://www.w3.org/2000/svg" viewBox="0 0 32 32" class="sc-17dt15x-74 glkXAE"><g style="fill: rgb(255, 255, 255);"><path d="M16 31.5c-4.14 0-8.033-1.612-10.96-4.54A15.399 15.399 0 0 1 .5 16c0-4.14 1.612-8.033 4.54-10.96A15.399 15.399 0 0 1 16 .5c4.14 0 8.033 1.612 10.96 4.54A15.399 15.399 0 0 1 31.5 16c0 4.14-1.612 8.033-4.54 10.96A15.399 15.399 0 0 1 16 31.5z" style="stroke: none;"></path><path d="M16 1C11.993 1 8.227 2.56 5.393 5.393A14.902 14.902 0 0 0 1 16c0 4.007 1.56 7.773 4.393 10.607A14.902 14.902 0 0 0 16 31c4.007 0 7.773-1.56 10.607-4.393A14.902 14.902 0 0 0 31 16c0-4.007-1.56-7.773-4.393-10.607A14.902 14.902 0 0 0 16 1m0-1c8.837 0 16 7.163 16 16s-7.163 16-16 16S0 24.837 0 16 7.163 0 16 0z" style="fill: rgb(233, 233, 233); stroke: none;"></path></g><g data-name="Group 829"><path data-name="Subtraction 17" d="M6.73 13.461a6.712 6.712 0 0 1-3.563-1.019l.572-.777A5.769 5.769 0 0 0 11.37 3.3l.753-.6A6.731 6.731 0 0 1 6.73 13.461zm-5.4-2.707a6.732 6.732 0 0 1 8.942-9.745l-.808.645A5.769 5.769 0 0 0 1.935 9.94l-.6.814z" transform="translate(9.19 9.118)" style="fill: rgb(38, 38, 38); stroke: rgb(38, 38, 38); stroke-width: 0.1px;"></path><path data-name="Union 64" d="m2.428 3.156-.118.1L0 .538.65 0l1.779 2.089L4.206 0l.65.538-2.31 2.716z" transform="rotate(-29 40.062 -4.973)" style="fill: rgb(38, 38, 38); stroke: rgb(38, 38, 38); stroke-width: 0.1px;"></path><path data-name="Union 65" d="M2.429 1.165.65 3.254 0 2.715 2.31 0l.118.1.118-.1 2.31 2.715-.65.538z" transform="rotate(-29 34.324 -29.172)" style="fill: rgb(38, 38, 38); stroke: rgb(38, 38, 38); stroke-width: 0.1px;"></path></g></svg>